<?xml version="1.0" encoding="utf-8"?>
<!-- Generator: Adobe Illustrator 19.0.0, SVG Export Plug-In . SVG Version: 6.00 Build 0)  -->
<svg version="1.1" id="Layer_1" xmlns="http://www.w3.org/2000/svg" xmlns:xlink="http://www.w3.org/1999/xlink" x="0px" y="0px"
	 viewBox="0 0 36.2 56" style="enable-background:new 0 0 36.2 56;" xml:space="preserve">
<style type="text/css">
	.st0{fill:#FFFFFF;}
</style>
<g id="XMLID_84_">
	<path id="XMLID_90_" class="st0" d="M11.9,21.5c0.3,0.4,0.6,0.9,0.9,1.3c1.5,1.6,3.2,3,5.2,4c0.1,0.1,0.4,0.1,0.5,0
		c0.6-0.3,1.1-0.6,1.7-1c1.8-1.2,3.3-2.5,4.4-4.4c0.2-0.3,0.3-0.3,0.6-0.2c2,0.9,4.1,1.5,6.3,1.8c1.3,0.2,2.5,0.3,3.9,0.4
		c0-0.3,0-0.4-0.1-0.6c-0.3-2.2-1-4.3-2-6.3c-1.1-2.2-2.7-4-4.7-5.4c-2.4-1.7-5.1-2.5-8-2.8c-0.3,0-0.4-0.1-0.4-0.5
		c0-1,0.1-2.1,0-3.1c-0.1-0.9-0.3-1.8-0.6-2.7c-0.1-0.6-0.6-0.9-1.1-1.1c-0.6-0.1-1,0.1-1.4,0.6c-0.4,0.5-0.4,1-0.2,1.5
		c0.5,1.5,0.6,3.1,0.4,4.7c0,0.3-0.2,0.4-0.5,0.4c-1.7,0.1-3.3,0.4-4.9,0.9c-3,1-5.5,2.7-7.4,5.3c-1.7,2.3-2.7,5-3.2,7.8
		c-0.1,0.4-0.1,0.7-0.1,1.1c0.1,0,0.1,0,0.1,0.1c0.1,0,0.2,0,0.3,0c3.3-0.1,6.6-0.7,9.6-2.1C11.5,21.1,11.7,21.1,11.9,21.5z"/>
	<path id="XMLID_98_" class="st0" d="M32.7,26.3c-2.2-0.2-4.4-0.7-6.5-1.4c-0.1,0-0.3,0-0.4,0.1c-0.9,0.8-1.7,1.6-2.6,2.5
		c0,0-0.1,0-0.1-0.1c0,0.2-0.1,0.4,0,0.5c0.4,2.2,1.4,4.1,2.9,5.8c1.7,1.8,3.7,2.8,6.2,3c0.3,0,0.5,0,0.6-0.3c0.3-0.7,0.7-1.3,1-2
		c1-2.7,0.6-5.3-0.6-7.8C33.1,26.4,32.8,26.3,32.7,26.3z"/>
	<path id="XMLID_99_" class="st0" d="M13.5,27.9c0.1-0.3,0-0.4-0.2-0.6c-0.6-0.5-1.2-1-1.8-1.5c0,0,0,0,0,0
		c-0.2-0.2-0.5-0.4-0.7-0.7c-0.2-0.3-0.4-0.3-0.8-0.2c-1.8,0.6-3.7,1-5.5,1.2c-0.8,0.1-1.3,0.3-1.6,1.2c-1.2,3.2-1.1,6.2,0.8,9.1
		c0.2,0.3,0.3,0.3,0.6,0.3c2.3-0.2,4.3-1.1,6-2.7C12,32.2,13,30.2,13.5,27.9z"/>
	<path id="XMLID_100_" class="st0" d="M18.5,30c-0.2,0.1-0.5,0.1-0.6,0c-0.5-0.2-1-0.4-1.5-0.7c0,0.1-0.1,0.2-0.1,0.3
		c-0.6,2-1.5,3.8-2.8,5.4c-0.1,0.2-0.2,0.4-0.2,0.6c0.5,2.9,2,5.1,4.6,6.7c0.2,0.1,0.5,0.2,0.7,0c0.6-0.4,1.2-0.8,1.7-1.2
		c1.6-1.4,2.5-3.2,2.9-5.3c0-0.2,0-0.5-0.2-0.7c-1.2-1.5-2.1-3.2-2.7-5.1c-0.1-0.2-0.1-0.4-0.2-0.6C19.6,29.6,19.1,29.9,18.5,30z"/>
	<path id="XMLID_101_" class="st0" d="M29.9,39.4c-1-0.3-1.9-0.7-2.9-1.1c-0.4-0.2-0.8-0.4-1.2-0.7c-0.1,0.3-0.2,0.6-0.3,0.8
		c-0.8,2.1-2,3.8-3.7,5.1c-0.2,0.2-0.2,0.3-0.1,0.5c0.5,0.8,1.1,1.5,1.8,2.1c0.8,0.7,1.7,1.2,2.7,1.6c0.3,0.1,0.6,0.1,0.8-0.2
		c0.4-0.4,0.8-0.8,1.1-1.2c1.6-1.9,2.2-4.2,2.1-6.7C30.3,39.6,30.2,39.5,29.9,39.4z"/>
	<path id="XMLID_102_" class="st0" d="M14.6,43.7c-1.1-0.9-2-1.9-2.7-3.1c-0.5-0.9-0.9-1.9-1.4-2.8c0,0-0.1,0.1-0.2,0.1
		c-1.2,0.7-2.4,1.3-3.8,1.5c-0.3,0.1-0.4,0.2-0.4,0.5c-0.1,3.1,1,5.7,3.2,7.8c0.3,0.3,0.5,0.3,0.9,0.2c1.9-0.8,3.4-2,4.5-3.7
		C14.8,44,14.8,43.8,14.6,43.7z"/>
	<path id="XMLID_103_" class="st0" d="M22.5,49.4c-1.4-1-2.5-2.2-3.4-3.6c-0.1-0.2-0.2-0.2-0.4-0.1c-0.2,0.1-0.5,0.1-0.7,0
		c-0.3-0.1-0.4-0.1-0.6,0.2c-0.9,1.4-2,2.5-3.3,3.5c-0.2,0.2-0.3,0.3-0.2,0.5c0.8,2,2.2,3.5,4,4.5c0.2,0.1,0.4,0.1,0.7,0
		c0.7-0.5,1.3-0.9,2-1.4c0.8-0.9,1.5-1.9,2-3.1C22.6,49.6,22.7,49.5,22.5,49.4z"/>
</g>
</svg>
