<?xml version="1.0" encoding="utf-8"?>
<!-- Generator: Adobe Illustrator 19.0.0, SVG Export Plug-In . SVG Version: 6.00 Build 0)  -->
<svg version="1.1" xmlns="http://www.w3.org/2000/svg" xmlns:xlink="http://www.w3.org/1999/xlink" x="0px" y="0px"
	 viewBox="0 0 1678 770.9" style="enable-background:new 0 0 1678 770.9;" xml:space="preserve">
<style type="text/css">
	.st0{fill:#6699CC;}
	.st1{fill:#FFFFFF;}
	.st2{fill:#69C4A3;}
	.st3{fill:#9DD6C1;}
	.st4{fill:#605DA9;}
	.st5{fill:#42409A;}
	.st6{fill:#FFD754;}
	.st7{fill:#FFDF78;}
	.st8{fill:#0F1041;}
	.st9{fill:#25255C;}
	.st10{fill:none;}
	.st11{fill:#1C3664;}
	.st12{fill:#314B7B;}
</style>
<g id="Background">
	<rect id="XMLID_1_" class="st0" width="1678" height="770.9"/>
</g>
<g id="Clouds">
	<path id="XMLID_174_" class="st1" d="M131.6,471c-0.9-4.9-5.2-8.6-10.4-8.6c-2.8,0-5.3,1.1-7.2,2.8c-1.9-1.7-4.4-2.8-7.2-2.8
		c-2.7,0-5.2,1-7.1,2.7c-1-0.7-2.2-1.1-3.5-1.1c-3.4,0-6.2,2.7-6.2,6.1c0,0.6,0.1,1.2,0.3,1.8c-2.8,1.9-4.6,5-4.6,8.6
		c0,5.7,4.7,10.4,10.6,10.4c2.2,0,4.3-0.7,6-1.9c1.9,2.7,5.1,4.5,8.7,4.5c4.2,0,7.8-2.4,9.5-5.9c1.1,1,2.5,1.6,4.1,1.6
		c3.4,0,6.2-2.7,6.2-6.1c3.4,0,6.2-2.7,6.2-6.1C137,474,134.7,471.4,131.6,471z"/>
	<path id="XMLID_166_" class="st1" d="M390.1,404.5c-1.3-7.4-7.8-13-15.7-13c-4.2,0-8,1.6-10.9,4.2c-2.8-2.6-6.7-4.2-10.9-4.2
		c-4.1,0-7.8,1.5-10.7,4.1c-1.5-1-3.3-1.6-5.3-1.6c-5.2,0-9.4,4.1-9.4,9.2c0,0.9,0.1,1.8,0.4,2.7c-4.2,2.8-7,7.6-7,13
		c0,8.7,7.1,15.7,15.9,15.7c3.4,0,6.5-1,9.1-2.8c2.9,4.1,7.7,6.8,13.1,6.8c6.3,0,11.7-3.6,14.3-8.8c1.7,1.5,3.8,2.4,6.3,2.4
		c5.2,0,9.4-4.1,9.4-9.2c5.2,0,9.4-4.1,9.4-9.2C398.3,408.9,394.7,405.1,390.1,404.5z"/>
	<path id="XMLID_167_" class="st1" d="M1588.3,514.7c-1.1-6.2-6.5-10.9-13.1-10.9c-3.5,0-6.7,1.3-9.1,3.5c-2.4-2.2-5.6-3.5-9.1-3.5
		c-3.4,0-6.6,1.3-8.9,3.4c-1.3-0.8-2.8-1.3-4.4-1.3c-4.3,0-7.8,3.4-7.8,7.7c0,0.8,0.1,1.5,0.3,2.3c-3.5,2.4-5.8,6.3-5.8,10.8
		c0,7.2,6,13.1,13.3,13.1c2.8,0,5.4-0.9,7.6-2.3c2.4,3.4,6.4,5.7,11,5.7c5.3,0,9.8-3,12-7.4c1.4,1.2,3.2,2,5.2,2
		c4.3,0,7.8-3.4,7.8-7.7c4.3,0,7.8-3.4,7.8-7.7C1595.1,518.4,1592.1,515.2,1588.3,514.7z"/>
	<path id="XMLID_168_" class="st1" d="M1270,520.3c-0.9-5-5.2-8.7-10.5-8.7c-2.8,0-5.4,1.1-7.3,2.8c-1.9-1.8-4.5-2.8-7.3-2.8
		c-2.8,0-5.3,1-7.2,2.7c-1-0.7-2.2-1.1-3.5-1.1c-3.5,0-6.3,2.8-6.3,6.2c0,0.6,0.1,1.2,0.3,1.8c-2.8,1.9-4.7,5.1-4.7,8.7
		c0,5.8,4.8,10.5,10.7,10.5c2.3,0,4.4-0.7,6.1-1.9c1.9,2.8,5.2,4.6,8.8,4.6c4.2,0,7.9-2.4,9.6-5.9c1.1,1,2.6,1.6,4.2,1.6
		c3.5,0,6.3-2.8,6.3-6.2c3.5,0,6.3-2.8,6.3-6.2C1275.5,523.3,1273.1,520.7,1270,520.3z"/>
	<path id="XMLID_169_" class="st1" d="M966.8,431.4c-0.9-5-5.2-8.7-10.5-8.7c-2.8,0-5.4,1.1-7.3,2.8c-1.9-1.8-4.5-2.8-7.3-2.8
		c-2.8,0-5.3,1-7.2,2.7c-1-0.7-2.2-1.1-3.5-1.1c-3.5,0-6.3,2.8-6.3,6.2c0,0.6,0.1,1.2,0.3,1.8c-2.8,1.9-4.7,5.1-4.7,8.7
		c0,5.8,4.8,10.5,10.7,10.5c2.3,0,4.4-0.7,6.1-1.9c1.9,2.8,5.2,4.6,8.8,4.6c4.2,0,7.9-2.4,9.6-5.9c1.1,1,2.6,1.6,4.2,1.6
		c3.5,0,6.3-2.8,6.3-6.2c3.5,0,6.3-2.8,6.3-6.2C972.2,434.4,969.9,431.8,966.8,431.4z"/>
	<path id="XMLID_19_" class="st1" d="M715.7,378.4c-0.9-5-5.2-8.7-10.5-8.7c-2.8,0-5.4,1.1-7.3,2.8c-1.9-1.8-4.5-2.8-7.3-2.8
		c-2.8,0-5.3,1-7.2,2.7c-1-0.7-2.2-1.1-3.5-1.1c-3.5,0-6.3,2.8-6.3,6.2c0,0.6,0.1,1.2,0.3,1.8c-2.8,1.9-4.7,5.1-4.7,8.7
		c0,5.8,4.8,10.5,10.7,10.5c2.3,0,4.4-0.7,6.1-1.9c1.9,2.8,5.2,4.6,8.8,4.6c4.2,0,7.9-2.4,9.6-5.9c1.1,1,2.6,1.6,4.2,1.6
		c3.5,0,6.3-2.8,6.3-6.2c3.5,0,6.3-2.8,6.3-6.2C721.1,381.4,718.8,378.8,715.7,378.4z"/>
</g>
<g id="Layer_9">
	<g id="XMLID_25_">
		<polygon id="XMLID_29_" class="st1" points="263.5,473.6 248.2,447.1 248.2,473.6 		"/>
		<polygon id="XMLID_35_" class="st1" points="248.2,447.1 232.9,473.6 248.2,473.6 		"/>
		<polygon id="XMLID_36_" class="st2" points="232.9,473.6 61.2,770.8 248.2,770.8 248.2,473.6 		"/>
		<polygon id="XMLID_37_" class="st3" points="263.5,473.6 248.2,473.6 248.2,770.8 435.3,770.8 		"/>
	</g>
</g>
<g id="Layer_10">
	<g id="XMLID_33_">
		<polygon id="XMLID_39_" class="st1" points="91.7,612.2 91.5,612.5 74.5,641.8 91.5,641.8 108.8,641.8 		"/>
		<polygon id="XMLID_42_" class="st4" points="108.8,641.8 91.5,641.8 91.5,770.8 183.3,770.8 		"/>
		<polygon id="XMLID_43_" class="st5" points="74.5,641.8 0,770.8 91.5,770.8 91.5,641.8 		"/>
	</g>
</g>
<g id="Layer_7">
	<g id="XMLID_12_">
		<polygon id="XMLID_28_" class="st6" points="570.3,379.1 346.5,768.6 589,769.7 589,379.1 		"/>
		<polygon id="XMLID_20_" class="st1" points="589.1,346.4 589,346.6 570.3,379.1 589,379.1 608.1,379.1 		"/>
		<polygon id="XMLID_30_" class="st7" points="608.1,379.1 589,379.1 589,769.7 835.7,770.8 		"/>
	</g>
</g>
<g id="Layer_8">
	<g id="XMLID_23_">
		<polygon id="XMLID_32_" class="st8" points="453.8,540.9 321,770.8 470.6,770.8 470.6,540.9 		"/>
		<polygon id="XMLID_27_" class="st1" points="470.6,511.8 453.8,540.9 470.6,540.9 487.4,540.9 		"/>
		<polygon id="XMLID_34_" class="st9" points="487.4,540.9 470.6,540.9 470.6,770.8 620.2,770.8 		"/>
	</g>
</g>
<g id="Layer_5">
	<g id="XMLID_9_">
		<polygon id="XMLID_21_" class="st5" points="1374.6,489.8 1212.2,770.8 1399.3,770.8 1399.3,489.8 		"/>
		<polygon id="XMLID_22_" class="st4" points="1424,489.8 1399.3,489.8 1399.3,770.8 1586.3,770.8 		"/>
		<polygon id="XMLID_15_" class="st1" points="1399.3,447.1 1374.6,489.8 1399.3,489.8 1424,489.8 		"/>
	</g>
</g>
<g id="Layer_6">
	<g id="XMLID_2_">
		<polygon id="XMLID_24_" class="st6" points="1563.6,651.5 1494.7,770.8 1586.3,770.8 1586.3,651.5 		"/>
		<polygon id="XMLID_18_" class="st1" points="1586.3,612.2 1563.6,651.5 1586.3,651.5 1609.1,651.5 		"/>
		<polygon id="XMLID_26_" class="st7" points="1609.1,651.5 1586.3,651.5 1586.3,770.8 1678,770.8 		"/>
	</g>
</g>
<g id="Layer_4">
	<g id="XMLID_7_">
		<polygon id="XMLID_16_" class="st3" points="1200.1,575.2 1182.2,575.2 1182.2,770.8 1313.1,770.8 		"/>
		<polygon id="XMLID_17_" class="st2" points="1164.3,575.2 1051.2,770.8 1182.2,770.8 1182.2,575.2 		"/>
		<polygon id="XMLID_10_" class="st1" points="1182.2,544.2 1164.3,575.2 1182.2,575.2 1200.1,575.2 		"/>
	</g>
</g>
<g id="Layer_3">
	<g id="XMLID_6_">
		<polygon id="XMLID_11_" class="st9" points="1037.8,478 1020.1,478 1020.1,770.8 1207,770.8 		"/>
		<polygon id="XMLID_8_" class="st1" points="1020.1,447.3 1020,447.1 1002.1,478 1020.1,478 1037.8,478 		"/>
		<polygon id="XMLID_14_" class="st8" points="1002.1,478 832.9,770.8 1020.1,770.8 1020.1,478 		"/>
	</g>
</g>
<g id="Person">
	<polyline id="XMLID_63_" class="st6" points="825.5,328.5 786.8,318.3 825.5,308.1 	"/>
	<line id="XMLID_62_" class="st10" x1="795" y1="307.6" x2="800.3" y2="308.1"/>
	<g id="XMLID_65_">
		<path id="XMLID_66_" class="st7" d="M830.2,304.4c0-1.5-1-2.7-2.3-2.7s-2.3,1.2-2.3,2.7v4.2h4.7V304.4z"/>
		<path id="XMLID_67_" class="st11" d="M825.5,308.6V399c0,1.5,1.1,2.7,2.3,2.7s2.3-1.2,2.3-2.7v-90.5H825.5z"/>
	</g>
	<path id="XMLID_94_" class="st1" d="M836.9,320.6c0,6,5.1,10.8,11.2,10.7c6.1,0,11.1-4.9,11-10.9"/>
	<path id="XMLID_93_" class="st5" d="M834.1,319l7.7-0.1c0.4,0,0.8,0.4,0.8,0.8l0,0c0,0.4-0.4,0.8-0.8,0.8l-7.7,0.1
		c-0.4,0-0.8-0.4-0.8-0.8l0,0C833.3,319.3,833.7,319,834.1,319z"/>
	<path id="XMLID_92_" class="st3" d="M847.7,359.9L847.7,359.9c4.1,0,7.5-3.4,7.5-7.6l-0.1-13.6c0-4.1-3.4-7.5-7.6-7.5h0
		c-4.1,0-7.5,3.4-7.5,7.6l0.1,13.6C840.2,356.6,843.6,359.9,847.7,359.9z"/>
	<path id="XMLID_91_" class="st5" d="M845.8,359.9l3.7,0c2.8,0,5.1-2.3,5.1-5.2l0,0l-14,0.1v0C840.7,357.7,843,359.9,845.8,359.9z"
		/>
	<path id="XMLID_90_" class="st5" d="M849.9,383.6l1.2,0c0.6,0,1-0.9,1-2l-0.1-22.2c0-1.1-0.5-2-1-2l-1.2,0c-0.6,0-1,0.9-1,2
		l0.1,22.2C848.9,382.7,849.3,383.6,849.9,383.6z"/>
	<path id="XMLID_85_" class="st8" d="M842.8,311l5.1,0l5.1,0c3.3,0,6.1,2.3,6.1,5.2l0,4.3l-11.1,0.1l-11.1,0.1l0-4.3
		C836.8,313.4,839.5,311,842.8,311z"/>
	<path id="XMLID_84_" class="st9" d="M862.5,341L862.5,341c0.8,0,1.4-0.6,1.4-1.4l0-0.3c0-0.8-0.6-1.4-1.4-1.4l0,0
		c-0.8,0-1.4,0.6-1.4,1.4l0,0.3C861.1,340.4,861.7,341,862.5,341z"/>
	<path id="XMLID_83_" class="st9" d="M862.5,351.8L862.5,351.8c0.8,0,1.4-0.6,1.4-1.4l-0.1-6.8c0-0.8-0.6-1.4-1.4-1.4l0,0
		c-0.8,0-1.4,0.6-1.4,1.4l0.1,6.8C861.2,351.2,861.8,351.8,862.5,351.8z"/>
	<g id="XMLID_80_">
		<path id="XMLID_82_" class="st6" d="M861.6,336.6c0.4,0,0.8,0.4,0.8,0.9l0.1,15.1c0,0.5-0.3,0.9-0.8,0.9l-2.9,0l-0.1-16.9
			L861.6,336.6z"/>
		<path id="XMLID_81_" class="st7" d="M855.8,336.6l2.9,0l0.1,16.9l-2.9,0c-0.4,0-0.8-0.4-0.8-0.9l-0.1-15.1
			C855.1,337,855.4,336.6,855.8,336.6z"/>
	</g>
	<g id="XMLID_77_">
		<path id="XMLID_79_" class="st2" d="M845.2,339.4c0-0.5,0.6-0.9,1.3-0.9l1.5,0c0.7,0,1.3,0.4,1.3,0.9l0,4.5l-4,0L845.2,339.4z"/>
		<path id="XMLID_78_" class="st1" d="M849.2,343.9l0,5.3c0,0.5-0.6,0.9-1.3,0.9l-1.5,0c-0.7,0-1.3-0.4-1.3-0.9l0-5.3L849.2,343.9z"
			/>
	</g>
	<path id="XMLID_89_" class="st5" d="M839.4,361.4l0.9,0.8c0.4,0.4,1.1,0.4,1.5,0.1l4-2.8c0.4-0.3,0.4-0.8,0-1.2l-0.9-0.8
		c-0.4-0.4-1.1-0.4-1.5-0.1l-4,2.8C839,360.5,839,361,839.4,361.4z"/>
	<path id="XMLID_88_" class="st5" d="M841.1,375.3L841.1,375.3c0.9,0,1.6-0.8,1.6-1.7l-0.3-11.2c0-0.9-0.8-1.6-1.7-1.6l0,0
		c-0.9,0-1.6,0.8-1.6,1.7l0.3,11.2C839.5,374.6,840.2,375.4,841.1,375.3z"/>
	
		<ellipse id="XMLID_87_" transform="matrix(0.9926 -0.1213 0.1213 0.9926 -37.6297 104.5046)" class="st5" cx="839.6" cy="361.3" rx="0.5" ry="1.1"/>
	<g id="XMLID_56_">
		<path id="XMLID_61_" class="st2" d="M839.3,338.5c0.5,0,0.9,0.6,0.9,1.3l0,1.5c0,0.7-0.4,1.3-0.9,1.3l-4.5,0l0-4L839.3,338.5z"/>
		<path id="XMLID_60_" class="st1" d="M834.7,342.5l-5.3,0c-0.5,0-0.9-0.6-0.9-1.3l0-1.5c0-0.7,0.4-1.3,0.9-1.3l5.3,0L834.7,342.5z"
			/>
	</g>
</g>
<g id="Large_Mountain">
	<g id="XMLID_3_">
		<polygon id="XMLID_4_" class="st11" points="820.9,407 610.7,770.8 844,770.8 844,407 		"/>
		<polygon id="XMLID_13_" class="st12" points="868.1,407 844,407 844,770.8 1078.3,770.8 		"/>
		<polygon id="XMLID_5_" class="st1" points="844.5,366.1 844,367 820.9,407 844,407 868.1,407 		"/>
	</g>
	<path id="XMLID_41_" class="st1" d="M-949.7,415.9c0,90.6-75.5,164-168.6,164c-93.1,0-168.6-73.4-168.6-164"/>
	<path id="XMLID_31_" class="st5" d="M-908.4,391.5h-117c-6.6,0-12,5.4-12,12v0.4c0,6.6,5.4,12,12,12h117c6.6,0,12-5.4,12-12v-0.4
		C-896.4,396.9-901.8,391.5-908.4,391.5z"/>
	<path id="XMLID_38_" class="st3" d="M-1077.1,960.2h-94.6c-36.7,0-66.7-30-66.7-66.7V645.9c0-36.7,30-66.7,66.7-66.7h94.6
		c36.7,0,66.7,30,66.7,66.7v247.6C-1010.4,930.2-1040.4,960.2-1077.1,960.2z"/>
	<path id="XMLID_40_" class="st5" d="M-1021.5,960.2h-205.8c-6.1,0-11.1-5-11.1-11.1V900h228v49.1
		C-1010.4,955.2-1015.4,960.2-1021.5,960.2z"/>
	<path id="XMLID_46_" class="st5" d="M-1203.3,1099l-18.7,0.1c-8.6,0-15.7-5.3-15.7-11.9l-0.7-131.2c0-6.6,7-12,15.6-12.1l18.7-0.1
		c8.6,0,15.7,5.3,15.7,11.9l0.7,131.2C-1187.7,1093.6-1194.7,1099-1203.3,1099z"/>
	<path id="XMLID_44_" class="st5" d="M-986,986.8l-14.1,11.8c-6.5,5.4-17,6.3-23.3,1.8l-60.9-42.5c-6.3-4.4-6.2-12.5,0.2-18
		l14.1-11.8c6.5-5.4,17-6.3,23.3-1.8l60.9,42.5C-979.4,973.3-979.5,981.3-986,986.8z"/>
	<path id="XMLID_47_" class="st5" d="M-995.4,1094.3l-26-0.5c-6.6-0.1-11.9-5.6-11.8-12.2l1.7-92.1c0.1-6.6,5.6-11.9,12.2-11.8
		l26,0.5c6.6,0.1,11.9,5.6,11.8,12.2l-1.7,92.1C-983.3,1089.1-988.8,1094.4-995.4,1094.3z"/>
	
		<ellipse id="XMLID_48_" transform="matrix(-0.9935 -0.1135 0.1135 -0.9935 -2082.626 1853.943)" class="st5" cx="-988.5" cy="986.3" rx="7.5" ry="17.1"/>
	<path id="XMLID_50_" class="st1" d="M-907,691.6v25c0,9.2-7.5,16.7-16.7,16.7h-86.6v-58.5h86.6C-914.5,674.8-907,682.3-907,691.6z"
		/>
	<path id="XMLID_45_" class="st8" d="M-1041.5,271.1h-76.8h-76.9c-50.7,0-92.2,35.5-92.2,79v65.8h169h169v-65.8
		C-949.3,306.6-990.7,271.1-1041.5,271.1z"/>
	<path id="XMLID_51_" class="st9" d="M-1341.3,710.3h-18c-6.6,0-12-5.4-12-12v-17.1c0-6.6,5.4-12,12-12h18c6.6,0,12,5.4,12,12v17.1
		C-1329.3,704.9-1334.7,710.3-1341.3,710.3z"/>
	<path id="XMLID_52_" class="st9" d="M-1341.3,854.3h-18c-6.6,0-12-5.4-12-12V739.2c0-6.6,5.4-12,12-12h18c6.6,0,12,5.4,12,12v103.1
		C-1329.3,848.9-1334.7,854.3-1341.3,854.3z"/>
	<g id="XMLID_53_">
		<path id="XMLID_54_" class="st6" d="M-1338.3,651.3c-6.6,0-12,5.4-12,12v201.1c0,6.6,5.4,12,12,12h43.9V651.3H-1338.3z"/>
		<path id="XMLID_55_" class="st7" d="M-1250.4,651.3h-43.9v225.1h43.9c6.6,0,12-5.4,12-12V663.3
			C-1238.4,656.7-1243.8,651.3-1250.4,651.3z"/>
	</g>
	<g id="XMLID_57_">
		<path id="XMLID_58_" class="st2" d="M-1088.1,686.8c0-6.6-8.7-12-19.2-11.9l-22.8,0.1c-10.5,0-19.1,5.5-19,12.1l0.4,60.5h61.1
			L-1088.1,686.8z"/>
		<path id="XMLID_59_" class="st1" d="M-1148.8,747.5l0.4,70.7c0,6.6,8.7,12,19.2,11.9l22.8-0.1c10.5,0,19.1-5.5,19-12.1l-0.4-70.5
			H-1148.8z"/>
	</g>
</g>
</svg>
