<?xml version="1.0" encoding="utf-8"?>
<!-- Generator: Adobe Illustrator 19.0.0, SVG Export Plug-In . SVG Version: 6.00 Build 0)  -->
<svg version="1.1" id="Layer_1" xmlns="http://www.w3.org/2000/svg" xmlns:xlink="http://www.w3.org/1999/xlink" x="0px" y="0px"
	 viewBox="-83.7 113 34.3 63.8" style="enable-background:new -83.7 113 34.3 63.8;" xml:space="preserve">
<style type="text/css">
	.st0{fill:none;stroke:#000000;stroke-miterlimit:10;}
	.st1{fill:none;stroke:#000000;stroke-width:0.6;stroke-miterlimit:10;}
</style>
<path id="XMLID_1_" class="st0" d="M-66.5,175.9L-66.5,175.9c-9.6,0-16.3-6.7-16.3-16.3V130c0-8.6,6.7-16.3,16.3-16.3l0,0
	c8.6,0,16.3,7.7,16.3,16.3v29.6C-51.2,169.2-57.9,175.9-66.5,175.9z"/>
<path id="XMLID_4_" d="M-67.5,132.9L-67.5,132.9L-67.5,132.9v-5.7l0,0l0,0l0,0V132.9C-66.5,132.9-66.5,132.9-67.5,132.9z"/>
<path class="st1" d="M-66.7,123.5L-66.7,123.5c-0.8,0-1.4-0.6-1.4-1.4v-2.3c0-0.8,0.6-1.4,1.4-1.4l0,0c0.8,0,1.4,0.6,1.4,1.4v2.3
	C-65.3,122.8-66,123.5-66.7,123.5z"/>
<path d="M-66.7,118.3L-66.7,118.3c-0.2,0-0.4-0.2-0.4-0.4v-3.8c0-0.2,0.2-0.4,0.4-0.4l0,0c0.2,0,0.4,0.2,0.4,0.4v3.8
	C-66.4,118.1-66.5,118.3-66.7,118.3z"/>
<path d="M-66.7,128L-66.7,128c-0.2,0-0.4-0.2-0.4-0.4v-3.8c0-0.2,0.2-0.4,0.4-0.4l0,0c0.2,0,0.4,0.2,0.4,0.4v3.8
	C-66.4,127.8-66.5,128-66.7,128z"/>
</svg>
